<svg width="390" height="316" viewBox="0 0 390 316" fill="none" xmlns="http://www.w3.org/2000/svg">
<path d="M408 277.635H-16V277.847H408V277.635Z" fill="#E6E6E6"/>
<path d="M381.203 285.115H365.286V285.327H381.203V285.115Z" fill="#E6E6E6"/>
<path d="M307.732 290.932H300.363V291.144H307.732V290.932Z" fill="#E6E6E6"/>
<path d="M237.823 288.006H221.406V288.218H237.823V288.006Z" fill="#E6E6E6"/>
<path d="M89.2537 287.896H52.6286V288.108H89.2537V287.896Z" fill="#E6E6E6"/>
<path d="M45.0814 287.896H39.7136V288.108H45.0814V287.896Z" fill="#E6E6E6"/>
<path d="M223.967 282.876H144.526V283.088H223.967V282.876Z" fill="#E6E6E6"/>
<path d="M184.976 239.814H21.2357C19.9529 239.812 18.7235 239.301 17.8173 238.393C16.911 237.485 16.4021 236.255 16.4021 234.972V4.79968C16.4132 3.52431 16.9271 2.30485 17.8322 1.40617C18.7372 0.507493 19.9602 0.00218478 21.2357 0H184.976C186.26 0 187.492 0.510146 188.4 1.41821C189.308 2.32628 189.818 3.55788 189.818 4.84208V234.972C189.818 236.257 189.308 237.488 188.4 238.396C187.492 239.304 186.26 239.814 184.976 239.814ZM21.2357 0.169601C20.0092 0.171847 18.8337 0.660647 17.9672 1.52871C17.1007 2.39678 16.6141 3.57317 16.6141 4.79968V234.972C16.6141 236.199 17.1007 237.375 17.9672 238.243C18.8337 239.111 20.0092 239.6 21.2357 239.602H184.976C186.203 239.6 187.38 239.112 188.247 238.244C189.115 237.376 189.604 236.2 189.606 234.972V4.79968C189.604 3.5724 189.115 2.39602 188.247 1.52819C187.38 0.660372 186.203 0.171842 184.976 0.169601H21.2357Z" fill="#E6E6E6"/>
<path d="M368.407 239.814H204.658C203.375 239.812 202.144 239.301 201.237 238.394C200.329 237.486 199.818 236.256 199.816 234.972V4.79968C199.829 3.52354 200.345 2.30408 201.252 1.40564C202.158 0.507196 203.382 0.00216095 204.658 0H368.407C369.681 0.00441341 370.902 0.510707 371.805 1.40915C372.708 2.30758 373.221 3.52577 373.232 4.79968V234.972C373.232 236.254 372.724 237.483 371.82 238.39C370.915 239.298 369.688 239.81 368.407 239.814ZM204.658 0.169601C203.431 0.171842 202.254 0.660372 201.387 1.52819C200.519 2.39602 200.03 3.5724 200.028 4.79968V234.972C200.03 236.2 200.519 237.376 201.387 238.244C202.254 239.112 203.431 239.6 204.658 239.602H368.407C369.634 239.6 370.811 239.112 371.678 238.244C372.546 237.376 373.035 236.2 373.037 234.972V4.79968C373.035 3.5724 372.546 2.39602 371.678 1.52819C370.811 0.660372 369.634 0.171842 368.407 0.169601H204.658Z" fill="#E6E6E6"/>
<path d="M205.294 15.8406H33.7861V138.063H205.294V15.8406Z" fill="#FAFAFA"/>
<path d="M208.466 15.8406H35.2701V138.063H208.466V15.8406Z" fill="#F5F5F5"/>
<path d="M204.022 133.068V20.8269L39.7136 20.8269V133.068H204.022Z" fill="#FAFAFA"/>
<path d="M69.631 133.068L95.6986 20.8269H129.873L103.805 133.068H69.631Z" fill="white"/>
<path d="M109.334 133.068L135.41 20.8269H150.844L124.768 133.068H109.334Z" fill="white"/>
<path d="M204.022 133.068V20.8269H203.454V133.068H204.022Z" fill="#FAFAFA"/>
<path d="M30.4534 15.6371V64.0749H43.2667C43.2667 64.0749 66.256 49.0568 71.522 18.1642C71.6497 17.4243 71.6136 16.6654 71.4164 15.941C71.2192 15.2166 70.8657 14.5441 70.3807 13.971C69.8957 13.3979 69.291 12.938 68.6091 12.6237C67.9273 12.3094 67.1848 12.1484 66.434 12.1519H33.9387C33.0143 12.1519 32.1278 12.519 31.4742 13.1727C30.8206 13.8263 30.4534 14.7128 30.4534 15.6371Z" fill="#E0E0E0"/>
<path d="M30.4534 153.013V67.9842H43.2667C43.2667 67.9842 69.2748 118.059 72.2852 153.013H30.4534Z" fill="#E0E0E0"/>
<path d="M42.8936 64.0749H30.9198C30.2127 64.0749 29.6394 64.6482 29.6394 65.3554V66.7037C29.6394 67.4109 30.2127 67.9842 30.9198 67.9842H42.8936C43.6008 67.9842 44.1741 67.4109 44.1741 66.7037V65.3554C44.1741 64.6482 43.6008 64.0749 42.8936 64.0749Z" fill="#F5F5F5"/>
<path d="M212.112 15.6371V64.0749H199.273C199.273 64.0749 176.25 49.0568 171.018 18.1642C170.892 17.4245 170.929 16.6662 171.127 15.9424C171.325 15.2186 171.678 14.5468 172.163 13.974C172.648 13.4013 173.252 12.9414 173.933 12.6266C174.614 12.3119 175.356 12.1498 176.106 12.1518H208.635C209.557 12.1563 210.44 12.5252 211.092 13.1781C211.743 13.831 212.11 14.7149 212.112 15.6371Z" fill="#E0E0E0"/>
<path d="M212.112 153.013V67.9842H199.273C199.273 67.9842 173.274 118.059 170.255 153.013H212.112Z" fill="#E0E0E0"/>
<path d="M199.646 67.9757H211.62C212.327 67.9757 212.901 67.4024 212.901 66.6952V65.3469C212.901 64.6397 212.327 64.0664 211.62 64.0664H199.646C198.939 64.0664 198.366 64.6397 198.366 65.3469V66.6952C198.366 67.4024 198.939 67.9757 199.646 67.9757Z" fill="#F5F5F5"/>
<path d="M208.237 168.464H180.058V277.635H208.237V168.464Z" fill="#FAFAFA"/>
<path d="M200.715 277.635H208.237V265.025H192.828L200.715 277.635Z" fill="#F4F8FF"/>
<path d="M73.4216 168.464H45.2425V277.635H73.4216V168.464Z" fill="#E0E0E0"/>
<path d="M208.237 168.464H66.8581V273.293H208.237V168.464Z" fill="#FAFAFA"/>
<path d="M109.334 149.926C109.334 160.102 119.137 168.464 131.128 168.464H141.948C153.931 168.464 163.734 160.119 163.734 149.926H109.334Z" fill="#EBEBEB"/>
<path d="M103.059 126.632H123.411C123.411 126.632 119.875 135.96 119.875 141.455C119.875 146.95 135.359 168.464 113.235 168.464C91.1108 168.464 106.595 146.941 106.595 141.455C106.595 135.968 103.059 126.632 103.059 126.632Z" fill="#E0E0E0"/>
<path d="M202.402 174.849H72.6923V201.281H202.402V174.849Z" fill="#EBEBEB"/>
<path d="M74.3799 277.635H66.8581V265.025H82.2747L74.3799 277.635Z" fill="#FAFAFA"/>
<path d="M133.562 188.061C133.562 188.849 133.795 189.62 134.233 190.275C134.671 190.931 135.294 191.442 136.022 191.743C136.75 192.045 137.552 192.124 138.325 191.97C139.098 191.816 139.808 191.437 140.366 190.879C140.923 190.322 141.303 189.612 141.456 188.839C141.61 188.065 141.531 187.264 141.23 186.536C140.928 185.807 140.417 185.185 139.762 184.747C139.106 184.309 138.336 184.075 137.547 184.075C136.49 184.075 135.477 184.495 134.729 185.243C133.982 185.99 133.562 187.004 133.562 188.061Z" fill="#FAFAFA"/>
<path d="M202.402 207.667H72.6923V234.099H202.402V207.667Z" fill="#EBEBEB"/>
<path d="M133.562 220.879C133.562 221.667 133.795 222.437 134.233 223.093C134.671 223.748 135.294 224.259 136.022 224.561C136.75 224.862 137.552 224.941 138.325 224.788C139.098 224.634 139.808 224.254 140.366 223.697C140.923 223.139 141.303 222.429 141.456 221.656C141.61 220.883 141.531 220.082 141.23 219.353C140.928 218.625 140.417 218.003 139.762 217.565C139.106 217.127 138.336 216.893 137.547 216.893C136.49 216.893 135.477 217.313 134.729 218.06C133.982 218.808 133.562 219.822 133.562 220.879Z" fill="#FAFAFA"/>
<path d="M202.402 240.476H72.6923V266.908H202.402V240.476Z" fill="#EBEBEB"/>
<path d="M137.547 257.682C139.749 257.682 141.533 255.897 141.533 253.696C141.533 251.495 139.749 249.711 137.547 249.711C135.346 249.711 133.562 251.495 133.562 253.696C133.562 255.897 135.346 257.682 137.547 257.682Z" fill="#FAFAFA"/>
<path d="M297.658 14.3651H234.711V59.1734H297.658V14.3651Z" fill="#E0E0E0"/>
<path d="M302.797 14.3651H238.29V59.1734H302.797V14.3651Z" fill="#F5F5F5"/>
<path d="M298.684 55.0606V18.4779L242.403 18.4779V55.0606H298.684Z" fill="white"/>
<path d="M288.78 44.4013V29.1288L252.307 29.1288V44.4013H288.78Z" fill="#F5F5F5"/>
<path d="M348.725 36.7693H310.412V76.9476H348.725V36.7693Z" fill="#E0E0E0"/>
<path d="M353.881 36.7693H313.999V76.9476H353.881V36.7693Z" fill="#F5F5F5"/>
<path d="M349.768 72.8347V40.8821H318.112V72.8347H349.768Z" fill="white"/>
<path d="M328.017 56.8584C328.017 55.4475 328.577 54.0942 329.574 53.0957C330.57 52.0973 331.923 51.5352 333.334 51.5329H334.538C335.949 51.5352 337.301 52.0973 338.298 53.0957C339.295 54.0942 339.855 55.4475 339.855 56.8584C339.855 58.2685 339.295 59.6209 338.298 60.618C337.3 61.6152 335.948 62.1754 334.538 62.1754H333.376C332.674 62.181 331.978 62.0476 331.328 61.7829C330.678 61.5182 330.087 61.1274 329.589 60.6331C329.091 60.1388 328.695 59.5508 328.426 58.9029C328.156 58.2551 328.017 57.5602 328.017 56.8584Z" fill="#F5F5F5"/>
<path d="M408 90.6088H306.834H288.44V113.988H270.047V137.368H251.654V160.747H233.261V184.126H214.868V207.497H196.475V230.876H178.082V254.256H159.689V277.635H178.082H408V90.6088Z" fill="#FAFAFA"/>
<path d="M262.636 254.256H157.798V261.269H262.636V254.256Z" fill="#EBEBEB"/>
<path d="M281.029 230.876H176.191V237.889H281.029V230.876Z" fill="#EBEBEB"/>
<path d="M299.422 207.497H194.584V214.51H299.422V207.497Z" fill="#EBEBEB"/>
<path d="M317.815 184.118H212.977V191.131H317.815V184.118Z" fill="#EBEBEB"/>
<path d="M336.208 160.747H231.37V167.76H336.208V160.747Z" fill="#EBEBEB"/>
<path d="M354.601 137.368H249.763V144.38H354.601V137.368Z" fill="#EBEBEB"/>
<path d="M372.995 113.988H268.156V121.001H372.995V113.988Z" fill="#EBEBEB"/>
<path d="M391.388 90.6088H286.549V97.6217H391.388V90.6088Z" fill="#EBEBEB"/>
<path d="M389.607 90.6088V113.988H371.214V137.368H352.821V160.747H334.427V184.126H316.034V207.497H297.641V230.876H279.248V254.256H260.855V277.635H279.248H408V113.988V90.6088H389.607Z" fill="white"/>
<path d="M196 315.931C286.806 315.931 360.419 311.633 360.419 306.332C360.419 301.03 286.806 296.732 196 296.732C105.194 296.732 31.5813 301.03 31.5813 306.332C31.5813 311.633 105.194 315.931 196 315.931Z" fill="#F5F5F5"/>
<path d="M293.647 90.736C294.834 94.7131 300.957 102.159 301.44 107.577C301.924 112.996 291.485 121.663 291.485 121.663C291.485 121.663 283.683 95.5781 288.568 92.5338C293.452 89.4895 293.647 90.736 293.647 90.736Z" fill="#263238"/>
<path d="M272.21 118.915C270.361 120.458 268.546 121.756 266.655 123.087C264.764 124.419 262.814 125.631 260.83 126.768C258.838 127.946 256.786 129.019 254.682 129.981C253.613 130.465 252.553 130.94 251.451 131.355C250.908 131.576 250.357 131.788 249.797 131.974L248.101 132.568C246.651 132.973 245.134 133.083 243.641 132.89C242.392 132.744 241.157 132.506 239.943 132.178C237.682 131.552 235.469 130.764 233.321 129.82C229.15 128 225.127 125.859 221.287 123.418L222.873 120.467C224.874 121.315 226.927 122.163 228.962 122.901C230.997 123.638 233.049 124.419 235.101 125.055C237.102 125.71 239.141 126.243 241.207 126.649C242.155 126.834 243.116 126.95 244.082 126.996C244.801 127.052 245.525 126.978 246.219 126.776C248.153 126.036 250.045 125.186 251.883 124.232C252.824 123.74 253.757 123.24 254.673 122.697C255.589 122.154 256.522 121.629 257.429 121.069C259.252 119.941 261.033 118.745 262.797 117.516C264.561 116.286 266.316 114.972 267.885 113.725L272.21 118.915Z" fill="#E58A7B"/>
<path d="M276.687 109.884C274.584 108.239 265.884 113.624 263.246 115.871L265.171 127.514C265.171 127.514 277.679 122.273 278.426 118.695C279.214 114.955 278.256 111.139 276.687 109.884Z" fill="#2EA3F8"/>
<path opacity="0.2" d="M276.687 109.884C274.584 108.239 265.884 113.624 263.246 115.871L265.171 127.514C265.171 127.514 277.679 122.273 278.426 118.695C279.214 114.955 278.256 111.139 276.687 109.884Z" fill="black"/>
<path d="M305.952 145.118L279.545 150.266C265.901 113.318 268.869 112.106 268.869 112.106C270.788 111.051 272.77 110.117 274.805 109.307L275.161 109.172C276.857 108.553 277.196 108.459 279.452 107.798C283.336 106.873 286.957 106.102 291.442 105.466L292.29 105.347C293.138 105.245 293.91 105.161 294.69 105.084C295.216 105.025 295.742 104.991 296.242 104.957L297.938 104.864C300.838 104.72 302.916 104.762 302.916 104.762C302.11 127.836 303.416 134.459 305.952 145.118Z" fill="#2EA3F8"/>
<path opacity="0.2" d="M305.952 145.118L279.545 150.266C265.901 113.318 268.869 112.106 268.869 112.106C270.788 111.051 272.77 110.117 274.805 109.307L275.161 109.172C276.857 108.553 277.196 108.459 279.452 107.798C283.336 106.873 286.957 106.102 291.442 105.466L292.29 105.347C293.138 105.245 293.91 105.161 294.69 105.084C295.216 105.025 295.742 104.991 296.242 104.957L297.938 104.864C300.838 104.72 302.916 104.762 302.916 104.762C302.11 127.836 303.416 134.459 305.952 145.118Z" fill="black"/>
<path d="M285.269 93.3903C283.573 96.1971 289.721 97.4946 293.359 94.6199C296.268 92.3133 295.581 86.9879 293.088 85.7498C290.594 84.5117 285.269 93.3903 285.269 93.3903Z" fill="#2EA3F8"/>
<path opacity="0.4" d="M285.269 93.3903C283.573 96.1971 289.721 97.4946 293.359 94.6199C296.268 92.3133 295.581 86.9879 293.088 85.7498C290.594 84.5117 285.269 93.3903 285.269 93.3903Z" fill="black"/>
<path d="M310.972 298.047L304.366 298.538L301.949 283.334L308.555 282.842L310.972 298.047Z" fill="#E58A7B"/>
<path d="M357.697 276.796L352.091 280.323L342.11 268.485L347.716 264.949L357.697 276.796Z" fill="#E58A7B"/>
<path d="M301.949 283.334L303.289 291.78L309.802 290.686L308.564 282.85L301.949 283.334Z" fill="#CF6F64"/>
<path d="M347.724 264.958L342.11 268.485L346.249 273.387L351.981 270.003L347.724 264.958Z" fill="#CF6F64"/>
<path d="M279.952 150.266C279.952 150.266 279.859 202.689 284.141 222.43C288.602 242.969 301.72 289.694 301.72 289.694L311.235 288.464C311.235 288.464 303.798 241.265 300.626 220.853C297.175 198.61 299.295 146.501 299.295 146.501L279.952 150.266Z" fill="#2EA3F8"/>
<path opacity="0.7" d="M279.952 150.266C279.952 150.266 279.859 202.689 284.141 222.43C288.602 242.969 301.72 289.694 301.72 289.694L311.235 288.464C311.235 288.464 303.798 241.265 300.626 220.853C297.175 198.61 299.295 146.501 299.295 146.501L279.952 150.266Z" fill="black"/>
<path opacity="0.5" d="M298.701 169.736L294.037 165.089C294.215 185.229 295.343 195.176 299.219 206.013C298.608 194.557 298.557 181.006 298.701 169.736Z" fill="black"/>
<path d="M286.516 148.909C286.516 148.909 300.736 192.233 307.792 217.19C315.237 243.52 343.781 272.641 343.781 272.641L351.973 267.909C351.973 267.909 332.469 240.264 325.295 215.697C310.709 165.826 316.704 155.26 305.943 145.118L286.516 148.909Z" fill="#2EA3F8"/>
<path opacity="0.7" d="M286.516 148.909C286.516 148.909 300.736 192.233 307.792 217.19C315.237 243.52 343.781 272.641 343.781 272.641L351.973 267.909C351.973 267.909 332.469 240.264 325.295 215.697C310.709 165.826 316.704 155.26 305.943 145.118L286.516 148.909Z" fill="black"/>
<path d="M275.339 78.0923C279.121 79.3558 282.555 88.7432 282.7 92.4405C282.844 96.1378 271.743 101.234 271.743 101.234C271.743 101.234 266.85 89.3622 268.216 81.7302C268.809 78.4146 275.339 78.0923 275.339 78.0923Z" fill="#263238"/>
<path d="M223.433 120.781L218.947 115.896L217.48 122.019C217.48 122.019 220.668 124.834 223.246 123.867L223.433 120.781Z" fill="#E58A7B"/>
<path d="M214.402 114.497L211.264 116.99L217.48 122.019L218.947 115.896L214.402 114.497Z" fill="#E58A7B"/>
<path d="M350.336 279.06L355.577 273.777C355.667 273.686 355.787 273.632 355.915 273.622C356.043 273.613 356.169 273.65 356.272 273.726L361.046 277.271C361.164 277.363 361.262 277.48 361.331 277.613C361.401 277.746 361.441 277.893 361.45 278.042C361.459 278.192 361.436 278.342 361.382 278.483C361.329 278.623 361.246 278.75 361.14 278.856C359.274 280.663 358.29 281.443 355.984 283.766C354.568 285.199 352.643 287.43 350.684 289.405C348.725 291.381 346.664 289.541 347.292 288.557C350.149 284.089 349.641 282.418 349.836 280.145C349.865 279.735 350.043 279.349 350.336 279.06Z" fill="#263238"/>
<path d="M303.925 297.589H311.37C311.501 297.588 311.628 297.634 311.729 297.718C311.83 297.802 311.898 297.918 311.922 298.047L313.092 303.932C313.118 304.077 313.112 304.225 313.074 304.367C313.036 304.51 312.968 304.642 312.873 304.754C312.778 304.867 312.66 304.957 312.526 305.019C312.392 305.08 312.247 305.112 312.1 305.11C309.496 305.068 308.241 304.915 304.968 304.915C302.958 304.915 298.803 305.119 296.022 305.119C293.24 305.119 292.943 302.371 294.088 302.125C299.176 301.006 301.169 299.471 302.84 297.996C303.142 297.737 303.527 297.593 303.925 297.589Z" fill="#263238"/>
<g style="mix-blend-mode:multiply" opacity="0.27">
<path d="M303.772 118.135L299.702 120.56L304.4 138.224C303.374 132.873 303.832 126.997 303.772 118.135Z" fill="#2EA3F8"/>
</g>
<path d="M280.639 90.5579C283.531 92.9747 287.728 96.4939 292.672 92.3811C296.912 88.8365 299.88 79.5339 292.273 79.1947C288.296 79.0166 280.639 90.5579 280.639 90.5579Z" fill="#263238"/>
<path d="M287.626 92.2115C287.626 96.2141 288.245 103.431 291.442 105.483C291.442 105.483 291.154 109.604 283.98 110.995C276.102 112.53 279.452 107.815 279.452 107.815C283.556 105.949 282.844 102.778 281.487 99.9283L287.626 92.2115Z" fill="#E58A7B"/>
<path d="M285.125 95.3576L281.495 99.9283C281.813 100.589 282.074 101.275 282.276 101.98C283.87 101.421 285.778 99.1821 285.617 97.4267C285.582 96.7126 285.415 96.011 285.125 95.3576Z" fill="#CF6F64"/>
<path d="M288.008 83.0192C288.856 89.5403 289.373 92.2794 286.761 96.2226C282.835 102.159 274.644 101.777 271.854 95.6459C269.31 90.1255 268.36 80.3819 274.16 76.6083C275.436 75.764 276.906 75.2602 278.431 75.1446C279.956 75.0291 281.486 75.3058 282.874 75.9484C284.262 76.591 285.462 77.5781 286.361 78.8158C287.26 80.0534 287.827 81.5005 288.008 83.0192Z" fill="#E58A7B"/>
<path d="M276.679 71.5966C272.269 74.7258 281.114 75.6501 281.122 80.1869C281.122 82.061 284.2 88.0055 288.576 87.6663L292.816 80.136C297.277 72.928 286.736 64.448 276.679 71.5966Z" fill="#263238"/>
<path d="M276.679 71.5966C268.92 71.1896 265.536 77.3631 266.426 82.909C271.839 81.5594 277.438 81.1152 282.996 81.5946C293.63 82.68 276.679 71.5966 276.679 71.5966Z" fill="#263238"/>
<path d="M290.128 88.6415C290.236 89.9073 289.836 91.164 289.017 92.1352C287.923 93.4157 286.473 92.661 285.964 91.1431C285.532 89.7693 285.583 87.4543 287.058 86.725C287.384 86.5742 287.743 86.507 288.101 86.5294C288.459 86.5518 288.807 86.6631 289.111 86.8533C289.416 87.0435 289.668 87.3065 289.846 87.6187C290.023 87.9309 290.12 88.2824 290.128 88.6415Z" fill="#E58A7B"/>
<path d="M278.587 86.725C278.688 87.2507 278.493 87.7256 278.154 87.7934C277.815 87.8613 277.45 87.4882 277.349 86.9454C277.247 86.4027 277.442 85.9363 277.781 85.8685C278.12 85.8006 278.485 86.1992 278.587 86.725Z" fill="#263238"/>
<path d="M272.659 87.8783C272.761 88.404 272.566 88.8874 272.227 88.9552C271.888 89.023 271.523 88.6499 271.421 88.1072C271.319 87.5645 271.514 87.0981 271.854 87.0387C272.193 86.9794 272.557 87.344 272.659 87.8783Z" fill="#263238"/>
<path d="M272.015 87.0472L270.683 86.937C270.683 86.937 271.523 87.7935 272.015 87.0472Z" fill="#263238"/>
<path d="M274.406 88.4803C274.168 89.765 273.757 91.0115 273.185 92.1861C273.489 92.3278 273.82 92.4013 274.156 92.4013C274.491 92.4013 274.823 92.3278 275.127 92.1861L274.406 88.4803Z" fill="#DF5753"/>
<path d="M277.34 93.8821C277.304 93.8826 277.268 93.8701 277.24 93.8467C277.212 93.8234 277.194 93.7908 277.188 93.7549C277.184 93.7348 277.184 93.7142 277.189 93.6943C277.193 93.6744 277.202 93.6556 277.214 93.639C277.225 93.6224 277.24 93.6083 277.258 93.5977C277.275 93.587 277.295 93.5799 277.315 93.5768C277.97 93.4628 278.59 93.1961 279.123 92.7983C279.656 92.4006 280.088 91.8829 280.385 91.2872C280.392 91.2683 280.404 91.2511 280.418 91.2366C280.433 91.2221 280.45 91.2105 280.469 91.2027C280.488 91.1948 280.508 91.1907 280.528 91.1907C280.549 91.1906 280.569 91.1946 280.588 91.2024C280.607 91.2102 280.624 91.2217 280.639 91.2361C280.653 91.2506 280.665 91.2677 280.673 91.2866C280.68 91.3055 280.685 91.3258 280.685 91.3463C280.685 91.3667 280.681 91.387 280.673 91.4059C280.362 92.0533 279.9 92.6163 279.326 93.0474C278.752 93.4784 278.082 93.7647 277.374 93.8821H277.34Z" fill="#263238"/>
<path d="M279.952 84.4693C279.874 84.4702 279.799 84.4431 279.74 84.393C279.455 84.1218 279.109 83.9221 278.732 83.81C278.355 83.698 277.956 83.6769 277.569 83.7485C277.484 83.7699 277.393 83.7564 277.318 83.7111C277.242 83.6658 277.188 83.5923 277.166 83.5068C277.145 83.4214 277.158 83.3309 277.204 83.2554C277.249 83.1798 277.323 83.1254 277.408 83.104C277.897 83.0078 278.402 83.0291 278.881 83.1662C279.36 83.3033 279.8 83.5523 280.164 83.8926C280.222 83.9514 280.255 84.0306 280.255 84.1131C280.255 84.1957 280.222 84.2749 280.164 84.3336C280.14 84.37 280.109 84.4009 280.073 84.4243C280.036 84.4477 279.995 84.463 279.952 84.4693Z" fill="#263238"/>
<path d="M269.377 85.648C269.338 85.6568 269.298 85.6568 269.259 85.648C269.22 85.6323 269.185 85.6089 269.155 85.5794C269.126 85.5498 269.102 85.5147 269.086 85.476C269.071 85.4373 269.063 85.3958 269.063 85.354C269.064 85.3122 269.072 85.2709 269.089 85.2325C269.27 84.7687 269.558 84.355 269.932 84.0259C270.305 83.6969 270.752 83.4622 271.235 83.3415C271.275 83.3329 271.317 83.3328 271.358 83.3411C271.399 83.3495 271.438 83.3661 271.472 83.3899C271.506 83.4137 271.535 83.4443 271.557 83.4797C271.579 83.5151 271.593 83.5547 271.599 83.5959C271.608 83.636 271.608 83.6775 271.6 83.7178C271.593 83.7581 271.577 83.7964 271.554 83.8305C271.531 83.8645 271.501 83.8936 271.467 83.9159C271.432 83.9383 271.394 83.9534 271.353 83.9605C270.972 84.0645 270.62 84.2557 270.326 84.5192C270.032 84.7827 269.803 85.1111 269.657 85.4784C269.63 85.5291 269.59 85.5716 269.541 85.6014C269.491 85.6312 269.435 85.6473 269.377 85.648Z" fill="#263238"/>
<path d="M348.369 282.138C348.223 282.134 348.081 282.095 347.954 282.024C347.827 281.954 347.719 281.853 347.639 281.731C347.579 281.659 347.539 281.573 347.522 281.481C347.506 281.388 347.514 281.293 347.546 281.205C347.843 280.408 350.183 279.899 350.446 279.84C350.477 279.835 350.508 279.838 350.537 279.85C350.565 279.862 350.59 279.882 350.607 279.908C350.625 279.933 350.635 279.962 350.635 279.993C350.635 280.023 350.625 280.053 350.607 280.077C350.149 280.832 349.251 282.096 348.411 282.138H348.369ZM350.141 280.23C349.217 280.468 347.995 280.892 347.843 281.316C347.828 281.354 347.825 281.397 347.834 281.438C347.843 281.478 347.864 281.516 347.894 281.545C347.946 281.632 348.021 281.704 348.11 281.753C348.2 281.802 348.301 281.827 348.403 281.824C348.852 281.799 349.488 281.214 350.141 280.23Z" fill="#2EA3F8"/>
<path d="M349.759 280.23C348.911 280.23 347.851 280.018 347.538 279.56C347.468 279.456 347.436 279.331 347.447 279.206C347.457 279.081 347.51 278.964 347.597 278.873C347.671 278.779 347.765 278.701 347.872 278.646C347.979 278.59 348.096 278.558 348.216 278.551H348.284C349.234 278.551 350.54 279.832 350.59 279.882C350.611 279.902 350.626 279.926 350.633 279.953C350.64 279.98 350.64 280.008 350.633 280.035C350.625 280.061 350.611 280.085 350.592 280.104C350.573 280.124 350.549 280.138 350.523 280.145C350.273 280.205 350.016 280.234 349.759 280.23ZM348.284 278.865H348.233C348.157 278.867 348.082 278.887 348.015 278.922C347.947 278.957 347.889 279.007 347.843 279.068C347.724 279.229 347.758 279.323 347.801 279.382C348.055 279.772 349.352 279.993 350.149 279.899C349.641 279.381 348.993 279.022 348.284 278.865Z" fill="#2EA3F8"/>
<path d="M301.491 298.75C300.921 298.801 300.35 298.657 299.872 298.343C299.758 298.255 299.669 298.14 299.613 298.008C299.557 297.876 299.535 297.731 299.549 297.589C299.549 297.503 299.57 297.42 299.612 297.345C299.654 297.271 299.714 297.209 299.787 297.165C300.567 296.707 303.297 298.064 303.603 298.216C303.631 298.231 303.655 298.255 303.67 298.284C303.685 298.312 303.691 298.345 303.688 298.377C303.684 298.409 303.67 298.439 303.649 298.463C303.628 298.488 303.6 298.505 303.569 298.513C302.885 298.656 302.19 298.736 301.491 298.75ZM300.236 297.377C300.137 297.37 300.037 297.391 299.948 297.436C299.919 297.451 299.896 297.475 299.881 297.503C299.865 297.532 299.859 297.565 299.863 297.597C299.855 297.693 299.869 297.789 299.906 297.878C299.943 297.966 300.001 298.045 300.075 298.106C300.499 298.471 301.593 298.53 303.035 298.293C302.159 297.833 301.214 297.524 300.236 297.377Z" fill="#2EA3F8"/>
<path d="M303.535 298.496H303.475C302.627 298.131 300.991 296.69 301.11 295.952C301.11 295.782 301.262 295.562 301.686 295.52H301.813C303.289 295.52 303.671 298.216 303.687 298.335C303.691 298.363 303.688 298.392 303.677 298.419C303.667 298.446 303.65 298.469 303.628 298.488C303.598 298.499 303.566 298.502 303.535 298.496ZM301.839 295.816H301.746C301.474 295.816 301.457 295.944 301.457 295.977C301.389 296.427 302.509 297.555 303.357 298.055C303.187 297.394 302.755 295.833 301.805 295.833L301.839 295.816Z" fill="#2EA3F8"/>
<path d="M277.942 85.8939L276.611 85.7752C276.611 85.7752 277.45 86.6402 277.942 85.8939Z" fill="#263238"/>
<path d="M283.768 116.634C269.581 119.797 273.965 111.215 274.813 109.324L275.169 109.189C276.865 108.569 277.205 108.476 279.46 107.815C283.396 106.752 287.403 105.973 291.451 105.483L292.299 105.364C293.147 105.254 293.919 105.169 294.699 105.101C295.225 105.042 295.75 105.008 296.251 104.974L297.947 104.872C298.235 106.195 298.939 113.267 283.768 116.634Z" fill="#E58A7B"/>
<path d="M306.036 143.49L307.69 145.627C307.817 145.788 307.639 146.017 307.334 146.076L279.638 151.47C279.401 151.521 279.18 151.47 279.138 151.292L278.434 148.977C278.434 148.816 278.57 148.637 278.824 148.587L305.57 143.38C305.651 143.356 305.736 143.354 305.818 143.373C305.9 143.392 305.975 143.433 306.036 143.49Z" fill="#26395A"/>
<path d="M303.026 147.179L303.747 147.043C303.891 147.043 303.984 146.925 303.959 146.831L303.026 143.829C303.026 143.736 302.857 143.694 302.712 143.719L302 143.855C301.856 143.855 301.763 143.982 301.788 144.067L302.721 147.077C302.746 147.162 302.89 147.213 303.026 147.179Z" fill="#2EA3F8"/>
<path d="M286.804 157.185L281.283 155.133L282.131 160.382C282.131 160.382 286.134 161.824 288.178 159.975L286.804 157.185Z" fill="#E58A7B"/>
<path d="M276.026 156.524L274.711 159.967L282.131 160.382L281.283 155.133L276.026 156.524Z" fill="#E58A7B"/>
<path d="M281.699 151.334L282.42 151.198C282.555 151.198 282.657 151.08 282.623 150.986L281.69 147.985C281.69 147.891 281.529 147.849 281.385 147.874L280.664 148.01C280.52 148.01 280.427 148.137 280.461 148.222L281.394 151.232C281.419 151.317 281.555 151.368 281.699 151.334Z" fill="#2EA3F8"/>
<path d="M292.367 149.248L293.079 149.112C293.223 149.112 293.317 148.994 293.291 148.9L292.358 145.898C292.358 145.805 292.189 145.763 292.045 145.788L291.332 145.924C291.188 145.924 291.095 146.051 291.12 146.136L292.053 149.146C292.087 149.195 292.136 149.232 292.193 149.25C292.249 149.269 292.311 149.268 292.367 149.248Z" fill="#2EA3F8"/>
<path d="M289.348 102.116C289.95 101.887 290.705 104.007 290.518 104.279C290.086 104.898 282.165 107.06 281.809 105.847C281.787 105.19 281.888 104.534 282.106 103.914C282.335 103.507 284.09 104.253 289.348 102.116Z" fill="#2EA3F8"/>
<path d="M288.008 102.167C288.313 101.463 289.187 100.335 289.95 100.98C290.713 101.624 291.035 103.015 290.535 103.244C290.035 103.473 287.482 103.346 288.008 102.167Z" fill="#2EA3F8"/>
<path d="M289.628 102.532C290.153 101.972 291.324 101.2 291.858 102.065C292.392 102.93 292.197 104.346 291.654 104.389C291.112 104.431 288.737 103.456 289.628 102.532Z" fill="#2EA3F8"/>
<path d="M289.916 102.405C289.873 101.954 289.962 101.5 290.171 101.098C290.38 100.697 290.701 100.364 291.095 100.14C292.061 99.5128 293.003 99.1058 293.376 98.4444C293.537 99.0645 293.568 99.711 293.469 100.344C293.274 101.251 290.264 101.947 290.467 102.735L289.916 102.405Z" fill="#2EA3F8"/>
<path d="M289.789 102.362C289.508 102.006 289.336 101.577 289.294 101.125C289.252 100.674 289.341 100.22 289.551 99.8181C290.009 98.7666 290.586 97.9186 290.552 97.1723C291.023 97.6062 291.401 98.1313 291.663 98.7157C291.985 99.5637 289.84 101.794 290.442 102.354L289.789 102.362Z" fill="#2EA3F8"/>
<path d="M348.767 268.019C348.75 268.018 348.733 268.013 348.718 268.004C348.703 267.996 348.691 267.983 348.682 267.968C348.487 267.697 329.102 240.035 321.996 215.731C317.358 200.141 313.794 184.252 311.328 168.175C309.861 159.119 308.971 153.649 306.053 149.163C306.034 149.143 306.023 149.115 306.023 149.087C306.023 149.058 306.034 149.031 306.053 149.011C306.073 148.993 306.099 148.984 306.126 148.984C306.152 148.984 306.178 148.993 306.198 149.011C309.149 153.539 310.039 159.025 311.506 168.108C313.984 184.161 317.553 200.028 322.191 215.596C329.289 239.865 348.657 267.493 348.852 267.773C348.868 267.794 348.876 267.819 348.876 267.845C348.876 267.871 348.868 267.896 348.852 267.917C348.851 267.941 348.842 267.964 348.827 267.982C348.811 268.001 348.79 268.013 348.767 268.019Z" fill="#2EA3F8"/>
<path opacity="0.4" d="M348.767 268.019C348.75 268.018 348.733 268.013 348.718 268.004C348.703 267.996 348.691 267.983 348.682 267.968C348.487 267.697 329.102 240.035 321.996 215.731C317.358 200.141 313.794 184.252 311.328 168.175C309.861 159.119 308.971 153.649 306.053 149.163C306.034 149.143 306.023 149.115 306.023 149.087C306.023 149.058 306.034 149.031 306.053 149.011C306.073 148.993 306.099 148.984 306.126 148.984C306.152 148.984 306.178 148.993 306.198 149.011C309.149 153.539 310.039 159.025 311.506 168.108C313.984 184.161 317.553 200.028 322.191 215.596C329.289 239.865 348.657 267.493 348.852 267.773C348.868 267.794 348.876 267.819 348.876 267.845C348.876 267.871 348.868 267.896 348.852 267.917C348.851 267.941 348.842 267.964 348.827 267.982C348.811 268.001 348.79 268.013 348.767 268.019Z" fill="black"/>
<path d="M312.939 288.43L299.982 290.109L299.134 286.497L312.625 283.639L312.939 288.43Z" fill="#2EA3F8"/>
<path d="M352.66 267.62L343.103 273.141L339.88 270.385L350.336 263.313L352.66 267.62Z" fill="#2EA3F8"/>
<path d="M307.809 113.742C308.267 116.1 308.53 118.321 308.784 120.62C309.038 122.918 309.132 125.19 309.2 127.488C309.267 129.804 309.216 132.123 309.047 134.433C308.954 135.595 308.852 136.757 308.691 137.927C308.623 138.504 308.547 139.089 308.436 139.674L308.123 141.472C307.775 142.937 307.138 144.318 306.249 145.534C305.519 146.556 304.714 147.523 303.84 148.425C302.204 150.106 300.447 151.665 298.583 153.089C294.977 155.866 291.16 158.358 287.169 160.543L285.354 157.728C287.05 156.38 288.746 154.989 290.442 153.573C292.138 152.157 293.749 150.724 295.301 149.231C296.834 147.795 298.281 146.268 299.634 144.66C300.255 143.916 300.822 143.128 301.33 142.303C301.731 141.701 302.018 141.032 302.178 140.327C302.454 138.268 302.615 136.196 302.661 134.12C302.661 133.06 302.661 132 302.661 130.94C302.661 129.88 302.619 128.803 302.568 127.734C302.466 125.597 302.271 123.494 302.042 121.323C301.813 119.152 301.517 117.007 301.194 114.997L307.809 113.742Z" fill="#E58A7B"/>
<path d="M306.783 106.534C310.404 109.468 309.539 118.186 309.539 118.186L297.328 122.205C297.328 122.205 297.887 112.156 298.498 108.544C299.21 104.245 303.213 103.643 306.783 106.534Z" fill="#2EA3F8"/>
<path opacity="0.2" d="M306.783 106.534C310.404 109.468 309.539 118.186 309.539 118.186L297.328 122.205C297.328 122.205 297.887 112.156 298.498 108.544C299.21 104.245 303.213 103.643 306.783 106.534Z" fill="black"/>
<path d="M145.468 142.913C144.994 140.857 143.837 139.023 142.186 137.709C140.535 136.395 138.487 135.68 136.377 135.68H68.5372C66.0632 135.68 63.6906 136.663 61.9413 138.412C60.1919 140.161 59.2092 142.534 59.2092 145.008V295.799C59.2092 298.273 60.1919 300.646 61.9413 302.395C63.6906 304.145 66.0632 305.127 68.5372 305.127H283.929C286.403 305.127 288.776 304.145 290.525 302.395C292.274 300.646 293.257 298.273 293.257 295.799V169.134C293.257 166.66 292.274 164.287 290.525 162.538C288.776 160.788 286.403 159.806 283.929 159.806H166.693C161.766 159.806 156.984 158.136 153.129 155.068C149.274 152 146.573 147.715 145.468 142.913Z" fill="#0560FA"/>
<path opacity="0.6" d="M145.468 142.913C144.994 140.857 143.837 139.023 142.186 137.709C140.535 136.395 138.487 135.68 136.377 135.68H68.5372C66.0632 135.68 63.6906 136.663 61.9413 138.412C60.1919 140.161 59.2092 142.534 59.2092 145.008V295.799C59.2092 298.273 60.1919 300.646 61.9413 302.395C63.6906 304.145 66.0632 305.127 68.5372 305.127H283.929C286.403 305.127 288.776 304.145 290.525 302.395C292.274 300.646 293.257 298.273 293.257 295.799V169.134C293.257 166.66 292.274 164.287 290.525 162.538C288.776 160.788 286.403 159.806 283.929 159.806H166.693C161.766 159.806 156.984 158.136 153.129 155.068C149.274 152 146.573 147.715 145.468 142.913Z" fill="black"/>
<path opacity="0.22" d="M121.52 95.9512L127.566 115.532C128.338 118.024 130.068 120.107 132.375 121.325C134.682 122.543 137.378 122.796 139.871 122.027L159.443 115.981L121.52 95.9512Z" fill="#0560FA"/>
<path d="M121.52 95.9512L51.5602 117.567C50.3252 117.946 49.1771 118.565 48.1816 119.389C47.1861 120.212 46.3628 121.224 45.7587 122.366C45.1546 123.508 44.7816 124.758 44.661 126.044C44.5404 127.331 44.6747 128.628 45.056 129.863L84.9968 259.166C85.378 260.4 85.9987 261.548 86.8235 262.542C87.6482 263.537 88.6608 264.359 89.8034 264.963C90.9461 265.566 92.1963 265.938 93.4829 266.058C94.7694 266.178 96.0669 266.043 97.3013 265.661L186.842 238C188.076 237.619 189.223 237 190.218 236.176C191.212 235.352 192.035 234.34 192.638 233.198C193.241 232.056 193.613 230.806 193.733 229.52C193.853 228.235 193.719 226.938 193.337 225.704L159.417 115.981L121.52 95.9512Z" fill="#0560FA"/>
<path opacity="0.8" d="M121.52 95.9512L51.5602 117.567C50.3252 117.946 49.1771 118.565 48.1816 119.389C47.1861 120.212 46.3628 121.224 45.7587 122.366C45.1546 123.508 44.7816 124.758 44.661 126.044C44.5404 127.331 44.6747 128.628 45.056 129.863L84.9968 259.166C85.378 260.4 85.9987 261.548 86.8235 262.542C87.6482 263.537 88.6608 264.359 89.8034 264.963C90.9461 265.566 92.1963 265.938 93.4829 266.058C94.7694 266.178 96.0669 266.043 97.3013 265.661L186.842 238C188.076 237.619 189.223 237 190.218 236.176C191.212 235.352 192.035 234.34 192.638 233.198C193.241 232.056 193.613 230.806 193.733 229.52C193.853 228.235 193.719 226.938 193.337 225.704L159.417 115.981L121.52 95.9512Z" fill="white"/>
<g opacity="0.28">
<path opacity="0.28" d="M159.163 232.352L100.956 250.33C99.8677 250.664 98.691 250.554 97.6836 250.023C96.6761 249.492 95.9198 248.584 95.5799 247.497C95.2485 246.409 95.3612 245.233 95.8935 244.228C96.4257 243.222 97.3342 242.468 98.4207 242.129L156.627 224.143C157.717 223.809 158.895 223.921 159.902 224.453C160.91 224.986 161.666 225.896 162.004 226.984C162.335 228.073 162.222 229.248 161.69 230.254C161.158 231.26 160.249 232.014 159.163 232.352Z" fill="#0560FA"/>
</g>
<g opacity="0.28">
<path opacity="0.28" d="M96.5212 126.844L65.7388 136.35C64.6502 136.682 63.4746 136.571 62.4677 136.04C61.4609 135.51 60.7042 134.603 60.3625 133.518C60.0308 132.428 60.1433 131.251 60.6754 130.244C61.2075 129.237 62.1162 128.481 63.2032 128.141L93.9856 118.635C95.0742 118.298 96.2518 118.408 97.2599 118.939C98.268 119.47 99.024 120.379 99.362 121.467C99.6936 122.557 99.5811 123.734 99.049 124.741C98.5169 125.748 97.6083 126.504 96.5212 126.844Z" fill="#0560FA"/>
</g>
<g opacity="0.28">
<path opacity="0.28" d="M121.639 136.927L70.7589 152.64C69.6726 152.966 68.5015 152.851 67.4997 152.319C66.4979 151.787 65.7463 150.882 65.408 149.799C65.0739 148.712 65.1844 147.536 65.7153 146.53C66.2461 145.524 67.1541 144.769 68.2403 144.431L119.12 128.718C120.209 128.384 121.385 128.494 122.393 129.025C123.4 129.555 124.157 130.463 124.497 131.55C124.825 132.642 124.709 133.82 124.174 134.826C123.639 135.833 122.728 136.588 121.639 136.927Z" fill="#0560FA"/>
</g>
<g opacity="0.28">
<path opacity="0.28" d="M150.047 145.992L75.796 168.888C74.7086 169.222 73.5331 169.111 72.527 168.58C71.5209 168.05 70.7662 167.142 70.4282 166.055C70.0962 164.967 70.2075 163.791 70.7379 162.784C71.2684 161.777 72.175 161.021 73.2605 160.679L147.511 137.783C148.599 137.451 149.773 137.563 150.779 138.093C151.784 138.624 152.539 139.53 152.879 140.615C153.214 141.704 153.103 142.881 152.573 143.888C152.042 144.895 151.134 145.652 150.047 145.992Z" fill="#0560FA"/>
</g>
<g opacity="0.28">
<path opacity="0.28" d="M155.076 162.273L111.912 175.612C110.824 175.944 109.648 175.831 108.643 175.299C107.637 174.766 106.883 173.858 106.545 172.772C106.213 171.684 106.324 170.51 106.855 169.504C107.385 168.499 108.292 167.744 109.377 167.404L152.54 154.065C153.63 153.735 154.805 153.849 155.812 154.381C156.818 154.912 157.574 155.82 157.916 156.905C158.248 157.994 158.135 159.169 157.603 160.175C157.071 161.181 156.162 161.935 155.076 162.273Z" fill="#0560FA"/>
</g>
<g opacity="0.28">
<path opacity="0.28" d="M92.12 181.726L80.8331 185.212C79.7446 185.546 78.5679 185.436 77.5605 184.905C76.553 184.374 75.7967 183.466 75.4568 182.379C75.1228 181.29 75.2343 180.112 75.7667 179.104C76.2991 178.097 77.2092 177.341 78.2976 177.003L89.5845 173.518C90.673 173.186 91.8486 173.297 92.8555 173.827C93.8624 174.358 94.619 175.265 94.9608 176.35C95.2901 177.44 95.1766 178.615 94.6448 179.622C94.113 180.628 93.2058 181.384 92.12 181.726Z" fill="#0560FA"/>
</g>
<g opacity="0.28">
<path opacity="0.28" d="M160.113 178.563L85.8618 201.502C84.7733 201.833 83.5978 201.72 82.5921 201.188C81.5864 200.656 80.8321 199.747 80.494 198.661C80.1599 197.574 80.2704 196.398 80.8012 195.392C81.3321 194.386 82.2401 193.631 83.3263 193.293L157.577 170.355C158.665 170.023 159.839 170.135 160.845 170.665C161.85 171.196 162.605 172.102 162.945 173.187C163.279 174.276 163.169 175.452 162.638 176.46C162.108 177.467 161.2 178.224 160.113 178.563Z" fill="#0560FA"/>
</g>
<g opacity="0.28">
<path opacity="0.28" d="M136.487 203.698L90.8904 217.783C89.803 218.115 88.6285 218.004 87.623 217.473C86.6175 216.942 85.8625 216.036 85.5226 214.951C85.1906 213.862 85.3019 212.687 85.8323 211.68C86.3628 210.673 87.2694 209.916 88.3549 209.575L133.952 195.489C135.042 195.158 136.218 195.27 137.225 195.802C138.232 196.335 138.988 197.243 139.328 198.33C139.662 199.419 139.55 200.595 139.018 201.602C138.485 202.608 137.575 203.362 136.487 203.698Z" fill="#0560FA"/>
</g>
<g opacity="0.28">
<path opacity="0.28" d="M165.141 194.853L152.973 198.61C151.883 198.942 150.706 198.829 149.699 198.297C148.692 197.765 147.936 196.856 147.596 195.769C147.265 194.681 147.378 193.505 147.91 192.5C148.442 191.494 149.351 190.74 150.437 190.401L162.606 186.645C163.693 186.311 164.869 186.421 165.875 186.952C166.881 187.483 167.636 188.391 167.974 189.477C168.308 190.566 168.198 191.742 167.667 192.75C167.136 193.757 166.228 194.514 165.141 194.853Z" fill="#0560FA"/>
</g>
<g opacity="0.28">
<path opacity="0.28" d="M170.17 211.152L95.936 234.048C94.8464 234.382 93.6688 234.271 92.6611 233.738C91.6534 233.206 90.8978 232.296 90.5597 231.207C90.226 230.119 90.3376 228.942 90.8702 227.936C91.4028 226.93 92.3127 226.176 93.4005 225.839L167.643 202.901C168.733 202.572 169.908 202.685 170.915 203.217C171.921 203.749 172.677 204.656 173.019 205.742C173.19 206.284 173.251 206.855 173.2 207.421C173.149 207.987 172.986 208.537 172.721 209.04C172.456 209.543 172.094 209.989 171.657 210.351C171.219 210.713 170.713 210.986 170.17 211.152Z" fill="#0560FA"/>
</g>
<path d="M171.764 47.3269L193.965 96.7992C194.541 98.0906 194.583 99.5577 194.081 100.88C193.579 102.202 192.574 103.271 191.285 103.855L97.1063 146.127C95.8152 146.706 94.3472 146.749 93.0245 146.246C91.7018 145.744 90.6324 144.738 90.0509 143.448L67.8418 93.9754C67.2605 92.6833 67.2162 91.2132 67.7188 89.8885C68.2213 88.5638 69.2295 87.4929 70.5215 86.9115L164.7 44.6387C165.994 44.0626 167.463 44.0219 168.787 44.5256C170.11 45.0293 171.181 46.0364 171.764 47.3269Z" fill="#0560FA"/>
<path opacity="0.3" d="M171.764 47.3269L193.965 96.7992C194.541 98.0906 194.583 99.5577 194.081 100.88C193.579 102.202 192.574 103.271 191.285 103.855L97.1063 146.127C95.8152 146.706 94.3472 146.749 93.0245 146.246C91.7018 145.744 90.6324 144.738 90.0509 143.448L67.8418 93.9754C67.2605 92.6833 67.2162 91.2132 67.7188 89.8885C68.2213 88.5638 69.2295 87.4929 70.5215 86.9115L164.7 44.6387C165.994 44.0626 167.463 44.0219 168.787 44.5256C170.11 45.0293 171.181 46.0364 171.764 47.3269Z" fill="black"/>
<path d="M156.921 44.8823L153.912 46.2324L154.259 47.0061L157.268 45.656L156.921 44.8823Z" fill="#0560FA"/>
<path d="M149.696 48.1192L140.311 52.3292L140.658 53.1029L150.043 48.8929L149.696 48.1192Z" fill="#0560FA"/>
<path d="M67.7582 98.9612L66.9846 99.3086L69.5549 105.033L70.3285 104.686L67.7582 98.9612Z" fill="#0560FA"/>
<path opacity="0.6" d="M168.61 44.4606L144.323 92.0334C142.069 96.4428 138.379 99.9512 133.861 101.979C129.343 104.006 124.269 104.432 119.477 103.185L67.7909 89.7099C68.3211 88.4698 69.2948 87.472 70.5215 86.9115L164.7 44.6387C165.934 44.087 167.331 44.0234 168.61 44.4606Z" fill="#0560FA"/>
<path d="M201.995 105.347L128.915 109.858C127.624 109.935 126.36 110.266 125.197 110.831C124.034 111.397 122.994 112.186 122.136 113.154C121.278 114.122 120.62 115.25 120.198 116.473C119.777 117.695 119.601 118.989 119.68 120.28L128.016 255.35C128.094 256.642 128.426 257.905 128.993 259.069C129.56 260.232 130.351 261.272 131.32 262.129C132.29 262.986 133.42 263.644 134.644 264.064C135.868 264.483 137.163 264.658 138.455 264.576L231.989 258.801C233.279 258.723 234.54 258.392 235.702 257.826C236.863 257.259 237.901 256.47 238.757 255.501C239.612 254.533 240.268 253.406 240.687 252.184C241.106 250.961 241.28 249.669 241.198 248.379L234.16 133.755L201.995 105.347Z" fill="#0560FA"/>
<path opacity="0.8" d="M201.995 105.347L128.915 109.858C127.624 109.935 126.36 110.266 125.197 110.831C124.034 111.397 122.994 112.186 122.136 113.154C121.278 114.122 120.62 115.25 120.198 116.473C119.777 117.695 119.601 118.989 119.68 120.28L128.016 255.35C128.094 256.642 128.426 257.905 128.993 259.069C129.56 260.232 130.351 261.272 131.32 262.129C132.29 262.986 133.42 263.644 134.644 264.064C135.868 264.483 137.163 264.658 138.455 264.576L231.989 258.801C233.279 258.723 234.54 258.392 235.702 257.826C236.863 257.259 237.901 256.47 238.757 255.501C239.612 254.533 240.268 253.406 240.687 252.184C241.106 250.961 241.28 249.669 241.198 248.379L234.16 133.755L201.995 105.347Z" fill="white"/>
<g opacity="0.22">
<path opacity="0.22" d="M206.413 246.768L145.603 250.525C144.467 250.59 143.352 250.203 142.5 249.448C141.649 248.693 141.13 247.632 141.058 246.497C140.993 245.361 141.379 244.246 142.131 243.393C142.884 242.54 143.943 242.019 145.078 241.943L205.888 238.195C207.024 238.127 208.14 238.512 208.994 239.265C209.847 240.018 210.367 241.079 210.441 242.214C210.509 243.352 210.123 244.469 209.368 245.323C208.613 246.176 207.551 246.696 206.413 246.768Z" fill="#0560FA"/>
</g>
<g opacity="0.22">
<path opacity="0.22" d="M170.424 129.473L138.26 131.44C137.124 131.505 136.009 131.119 135.156 130.367C134.303 129.614 133.782 128.555 133.706 127.42C133.641 126.284 134.028 125.167 134.782 124.314C135.537 123.461 136.598 122.941 137.734 122.867L169.899 120.882C171.034 120.815 172.149 121.2 173.001 121.954C173.853 122.707 174.372 123.767 174.444 124.902C174.516 126.041 174.133 127.162 173.38 128.019C172.626 128.876 171.563 129.399 170.424 129.473Z" fill="#0560FA"/>
</g>
<g opacity="0.22">
<path opacity="0.22" d="M192.455 145.195L139.311 148.468C138.175 148.537 137.057 148.153 136.203 147.4C135.349 146.646 134.829 145.585 134.757 144.448C134.69 143.311 135.076 142.193 135.831 141.34C136.586 140.486 137.648 139.967 138.785 139.895L191.921 136.621C193.058 136.552 194.176 136.936 195.029 137.689C195.883 138.443 196.403 139.504 196.475 140.641C196.542 141.777 196.157 142.893 195.404 143.747C194.651 144.6 193.591 145.12 192.455 145.195Z" fill="#0560FA"/>
</g>
<g opacity="0.22">
<path opacity="0.22" d="M217.921 160.704L140.363 165.487C139.223 165.557 138.102 165.172 137.245 164.417C136.389 163.662 135.866 162.599 135.792 161.459C135.725 160.324 136.11 159.208 136.863 158.357C137.617 157.505 138.677 156.986 139.812 156.914L217.378 152.123C218.514 152.058 219.63 152.445 220.481 153.199C221.333 153.954 221.851 155.015 221.923 156.151C221.991 157.284 221.608 158.398 220.859 159.251C220.109 160.104 219.053 160.626 217.921 160.704Z" fill="#0560FA"/>
</g>
<g opacity="0.22">
<path opacity="0.22" d="M218.972 177.715L173.884 180.497C172.748 180.564 171.632 180.179 170.778 179.426C169.925 178.673 169.405 177.613 169.33 176.477C169.261 175.341 169.645 174.223 170.398 173.369C171.152 172.515 172.214 171.995 173.35 171.924L218.438 169.142C219.575 169.072 220.693 169.457 221.546 170.21C222.4 170.964 222.92 172.025 222.992 173.162C223.059 174.298 222.674 175.414 221.921 176.267C221.168 177.121 220.108 177.641 218.972 177.715Z" fill="#0560FA"/>
</g>
<g opacity="0.22">
<path opacity="0.22" d="M153.201 181.769L141.406 182.498C140.271 182.565 139.155 182.18 138.303 181.427C137.451 180.674 136.933 179.613 136.861 178.479C136.793 177.342 137.178 176.226 137.931 175.373C138.684 174.52 139.744 173.999 140.88 173.925L152.676 173.196C153.813 173.13 154.929 173.517 155.782 174.272C156.635 175.026 157.155 176.087 157.229 177.224C157.294 178.36 156.907 179.475 156.153 180.327C155.398 181.178 154.337 181.697 153.201 181.769Z" fill="#0560FA"/>
</g>
<g opacity="0.22">
<path opacity="0.22" d="M220.024 194.726L142.457 199.509C141.321 199.576 140.205 199.191 139.351 198.438C138.498 197.685 137.978 196.625 137.904 195.489C137.839 194.353 138.225 193.236 138.98 192.383C139.734 191.53 140.795 191.01 141.932 190.936L219.49 186.153C220.627 186.086 221.745 186.472 222.598 187.227C223.452 187.982 223.971 189.044 224.043 190.181C224.111 191.316 223.726 192.432 222.972 193.284C222.219 194.135 221.159 194.654 220.024 194.726Z" fill="#0560FA"/>
</g>
<g opacity="0.22">
<path opacity="0.22" d="M191.141 213.586L143.509 216.528C142.372 216.593 141.255 216.207 140.402 215.452C139.549 214.698 139.029 213.637 138.955 212.5C138.89 211.364 139.277 210.249 140.032 209.397C140.787 208.546 141.847 208.027 142.983 207.955L190.615 205.012C191.751 204.947 192.867 205.335 193.718 206.089C194.57 206.844 195.088 207.905 195.16 209.04C195.23 210.176 194.846 211.293 194.092 212.145C193.338 212.998 192.277 213.516 191.141 213.586Z" fill="#0560FA"/>
</g>
<g opacity="0.22">
<path opacity="0.22" d="M221.067 211.746L208.347 212.526C207.212 212.593 206.096 212.208 205.244 211.455C204.392 210.701 203.874 209.641 203.802 208.506C203.732 207.37 204.116 206.252 204.87 205.398C205.623 204.544 206.685 204.024 207.821 203.952L220.541 203.172C221.678 203.103 222.796 203.487 223.649 204.24C224.503 204.994 225.023 206.055 225.095 207.192C225.16 208.329 224.773 209.445 224.019 210.298C223.264 211.151 222.203 211.671 221.067 211.746Z" fill="#0560FA"/>
</g>
<g opacity="0.22">
<path opacity="0.22" d="M222.118 228.757L144.56 233.539C143.424 233.607 142.308 233.222 141.454 232.469C140.601 231.715 140.081 230.655 140.007 229.52C139.939 228.384 140.324 227.267 141.077 226.414C141.83 225.561 142.89 225.04 144.026 224.966L221.593 220.183C222.728 220.116 223.843 220.501 224.695 221.254C225.547 222.008 226.066 223.068 226.138 224.203C226.208 225.339 225.823 226.457 225.07 227.311C224.316 228.165 223.255 228.685 222.118 228.757Z" fill="#0560FA"/>
</g>
<path opacity="0.22" d="M201.995 105.347L203.259 125.801C203.338 127.09 203.67 128.352 204.236 129.513C204.803 130.674 205.593 131.713 206.56 132.569C207.528 133.425 208.655 134.082 209.877 134.502C211.099 134.922 212.391 135.098 213.681 135.019L234.16 133.755L201.995 105.347Z" fill="#0560FA"/>
<path opacity="0.5" d="M178.065 156.371C178.052 155.391 177.843 154.423 177.45 153.525C177.057 152.627 176.488 151.817 175.776 151.143C175.065 150.469 174.225 149.944 173.308 149.599C172.39 149.255 171.412 149.098 170.433 149.138H102.508C97.3607 149.138 92.3321 153.318 91.3654 158.466L64.5601 295.799C63.5594 300.947 66.9175 305.127 72.0649 305.127H287.457C292.604 305.127 297.59 300.955 298.6 295.799L320.707 182.591C321.708 177.436 318.35 173.263 313.202 173.263H196C185.824 173.263 178.413 166.259 178.065 156.371Z" fill="#0560FA"/>
</svg>
