<svg width="48" height="48" viewBox="0 0 48 48" fill="none" xmlns="http://www.w3.org/2000/svg">
<path fill-rule="evenodd" clip-rule="evenodd" d="M21.4029 15.092C22.2825 15.2578 23.107 15.6396 23.8024 16.203C24.4978 16.7663 25.0424 17.4937 25.3872 18.3196C25.7319 19.1456 25.8661 20.0442 25.7775 20.9348C25.689 21.8254 25.3806 22.6801 24.8799 23.422L38.7139 34.16C39.1645 33.9266 39.6807 33.8523 40.1788 33.9492C40.6769 34.0462 41.1276 34.3086 41.4577 34.694C41.7878 35.0794 41.978 35.565 41.9973 36.072C42.0167 36.5791 41.864 37.0778 41.5642 37.4872C41.2644 37.8966 40.835 38.1926 40.3458 38.3272C39.8565 38.4618 39.3362 38.4271 38.8691 38.2286C38.4021 38.0302 38.0159 37.6798 37.7731 37.2342C37.5304 36.7886 37.4454 36.274 37.5319 35.774L23.4619 24.852C22.7994 25.306 22.0439 25.6066 21.2505 25.7317C20.4571 25.8568 19.6458 25.8033 18.8757 25.5752C18.1055 25.347 17.396 24.95 16.7988 24.4129C16.2015 23.8759 15.7316 23.2124 15.4232 22.4707C15.1149 21.7291 14.9758 20.928 15.0162 20.1258C15.0567 19.3236 15.2755 18.5405 15.6569 17.8336C16.0383 17.1268 16.5725 16.5138 17.2207 16.0396C17.8689 15.5653 18.6148 15.2416 19.4039 15.092L19.4019 6H21.4019V15.092H21.4029ZM22.2019 20.4C22.2019 20.6364 22.1554 20.8704 22.0649 21.0888C21.9745 21.3072 21.8419 21.5056 21.6747 21.6728C21.5076 21.8399 21.3092 21.9725 21.0908 22.063C20.8724 22.1534 20.6383 22.2 20.4019 22.2C20.1656 22.2 19.9315 22.1534 19.7131 22.063C19.4947 21.9725 19.2963 21.8399 19.1292 21.6728C18.962 21.5056 18.8294 21.3072 18.739 21.0888C18.6485 20.8704 18.6019 20.6364 18.6019 20.4C18.6019 19.9226 18.7916 19.4648 19.1292 19.1272C19.4667 18.7896 19.9246 18.6 20.4019 18.6C20.8793 18.6 21.3372 18.7896 21.6747 19.1272C22.0123 19.4648 22.2019 19.9226 22.2019 20.4Z" fill="#0560FA"/>
<path d="M27.626 20.384C27.6263 19.0008 27.2282 17.6467 26.4793 16.4837C25.7304 15.3207 24.6624 14.398 23.403 13.826V6.106C27.692 6.483 29.92 7.834 31.915 9.683C32.015 9.777 32.115 9.868 32.211 9.956V9.957C33.061 10.737 33.737 11.358 34.086 12.288L38.32 23.56C38.4335 23.8625 38.4719 24.1881 38.432 24.5087C38.3921 24.8294 38.2751 25.1356 38.091 25.4011C37.9069 25.6666 37.6611 25.8836 37.3748 26.0333C37.0885 26.1831 36.7701 26.2612 36.447 26.261H34.816V28.6L27.241 22.717C27.4974 21.9663 27.6279 21.1783 27.627 20.385L27.626 20.384ZM17.403 13.846V6.241C8.413 7.594 6 14.301 6 17.975C6 23.742 9.683 28.215 11.41 30.008V42H28.522V35.488H32.815C33.117 35.488 33.405 35.42 33.661 35.3L23.076 27.08C21.3265 27.802 19.3631 27.806 17.6106 27.0914C15.8581 26.3767 14.4575 25.0007 13.7118 23.2612C12.9662 21.5217 12.9354 19.5585 13.6262 17.7965C14.317 16.0344 15.6738 14.6153 17.403 13.846Z" fill="#0560FA"/>
</svg>
