<svg width="38" height="43" viewBox="0 0 38 43" fill="none" xmlns="http://www.w3.org/2000/svg">
<path fill-rule="evenodd" clip-rule="evenodd" d="M8.02912 4.18046C8.02912 3.65731 13.4231 0 18.7789 0C24.1346 0 29.5286 3.6585 29.5286 4.18046C29.5286 6.04375 29.3304 7.14739 29.1631 7.74819C29.0521 8.14234 28.683 8.36092 28.2733 8.36092H9.28445C8.87477 8.36092 8.50569 8.14234 8.39461 7.74819C8.22739 7.14739 8.02912 6.04375 8.02912 4.18046ZM16.9872 3.58325C16.6705 3.58325 16.3667 3.70909 16.1427 3.93309C15.9187 4.15709 15.7928 4.46089 15.7928 4.77767C15.7928 5.09445 15.9187 5.39825 16.1427 5.62225C16.3667 5.84625 16.6705 5.97209 16.9872 5.97209H20.5705C20.8873 5.97209 21.1911 5.84625 21.4151 5.62225C21.6391 5.39825 21.7649 5.09445 21.7649 4.77767C21.7649 4.46089 21.6391 4.15709 21.4151 3.93309C21.1911 3.70909 20.8873 3.58325 20.5705 3.58325H16.9872ZM9.26892 15.7878C5.29151 14.5576 6.29482 12.3598 7.81173 10.7498H30.0781C31.2916 12.3001 31.9425 14.3915 28.2745 15.6433C28.4244 16.9739 28.293 18.3212 27.8888 19.5977C27.4846 20.8743 26.8165 22.0516 25.9281 23.0534C25.0396 24.0552 23.9505 24.8591 22.7313 25.4129C21.5122 25.9667 20.1903 26.2581 18.8513 26.2682C17.5123 26.2783 16.1861 26.0069 14.9588 25.4715C13.7315 24.9361 12.6303 24.1488 11.7268 23.1605C10.8234 22.1722 10.1377 21.0051 9.71423 19.7348C9.2908 18.4645 9.13909 17.1193 9.26892 15.7866V15.7878ZM18.454 16.7218C21.6096 16.7218 24.0558 16.5546 25.931 16.2632C25.9927 17.237 25.8548 18.2132 25.5259 19.1318C25.1969 20.0505 24.6838 20.8923 24.0181 21.6057C23.3523 22.319 22.5478 22.8889 21.654 23.2804C20.7602 23.6719 19.7959 23.8767 18.8201 23.8823C17.8444 23.8879 16.8777 23.6942 15.9795 23.3131C15.0812 22.9319 14.2703 22.3713 13.5963 21.6657C12.9224 20.96 12.3996 20.1242 12.0601 19.2094C11.7206 18.2946 11.5715 17.3201 11.6219 16.3456C13.3694 16.5869 15.6089 16.7218 18.454 16.7218ZM28.8323 34.1603C27.7519 32.4748 26.2648 31.0881 24.508 30.1279C22.7511 29.1678 20.781 28.6651 18.7789 28.666C16.776 28.6647 14.8049 29.1675 13.0474 30.1281C11.2898 31.0887 9.80232 32.4762 8.72188 34.1627C8.32089 33.5451 7.70505 33.0983 6.99356 32.9086L4.68594 32.2911C3.92108 32.086 3.10609 32.1932 2.42023 32.589C1.73437 32.9848 1.2338 33.6368 1.02864 34.4016L0.10177 37.863C0.000258498 38.2418 -0.0256419 38.6369 0.0255478 39.0257C0.0767374 39.4145 0.204015 39.7895 0.400111 40.1291C0.596207 40.4687 0.85728 40.7664 1.16842 41.0051C1.47957 41.2438 1.83468 41.4189 2.2135 41.5203L4.51992 42.139C4.90787 42.2435 5.31296 42.2684 5.71079 42.2122C6.10861 42.1559 6.49093 42.0197 6.8347 41.8118C6.83565 42.1286 6.9624 42.432 7.18707 42.6553C7.41174 42.8786 7.71592 43.0036 8.0327 43.0026C8.34948 43.0017 8.65291 42.8749 8.87623 42.6502C9.09956 42.4256 9.22449 42.1214 9.22354 41.8046V40.6102C9.22354 40.1551 9.25578 39.7072 9.3167 39.2689L15.5324 40.9351C15.821 41.5526 16.2797 42.0751 16.8547 42.4411C17.4297 42.8072 18.0972 43.0016 18.7789 43.0016C19.4605 43.0016 20.128 42.8072 20.7031 42.4411C21.2781 42.0751 21.7368 41.5526 22.0253 40.9351L28.241 39.2689C28.302 39.7072 28.3342 40.1551 28.3342 40.6102V41.8046C28.3326 42.1214 28.4569 42.4258 28.6798 42.6509C28.9027 42.8761 29.2059 43.0034 29.5227 43.005C29.8394 43.0066 30.1439 42.8823 30.369 42.6594C30.5941 42.4365 30.7215 42.1333 30.723 41.8166C31.3919 42.2179 32.2185 42.3576 33.0319 42.139L35.3395 41.5215C35.7183 41.4201 36.0734 41.245 36.3845 41.0063C36.6957 40.7676 36.9568 40.4699 37.1529 40.1303C37.349 39.7907 37.4762 39.4157 37.5274 39.0269C37.5786 38.6381 37.5527 38.243 37.4512 37.8642L36.5231 34.4028C36.318 33.638 35.8174 32.986 35.1315 32.5902C34.4457 32.1944 33.6307 32.0872 32.8658 32.2923L30.5582 32.9098C29.8484 33.0988 29.2336 33.5438 28.8323 34.1591V34.1603ZM9.94377 36.9636C10.589 35.4032 11.6358 34.0414 12.9778 33.0166C14.3198 31.9918 15.9092 31.3405 17.5845 31.1289V36.0368C17.0492 36.2266 16.5666 36.5407 16.1762 36.9533C15.7859 37.3659 15.4989 37.8651 15.339 38.4101L9.94377 36.9648V36.9636ZM27.614 36.9636C26.9687 35.4033 25.9218 34.0415 24.5798 33.0167C23.2378 31.9919 21.6485 31.3406 19.9733 31.1289V36.0368C21.053 36.419 21.8963 37.3029 22.2188 38.4101L27.614 36.9648V36.9636ZM18.7789 40.6102C19.0957 40.6102 19.3995 40.4843 19.6235 40.2604C19.8475 40.0364 19.9733 39.7326 19.9733 39.4158C19.9733 39.099 19.8475 38.7952 19.6235 38.5712C19.3995 38.3472 19.0957 38.2214 18.7789 38.2214C18.4621 38.2214 18.1583 38.3472 17.9343 38.5712C17.7103 38.7952 17.5845 39.099 17.5845 39.4158C17.5845 39.7326 17.7103 40.0364 17.9343 40.2604C18.1583 40.4843 18.4621 40.6102 18.7789 40.6102Z" fill="#0560FA"/>
</svg>
