<svg width="42" height="42" viewBox="0 0 42 42" fill="none" xmlns="http://www.w3.org/2000/svg">
<g clip-path="url(#clip0_1_754)">
<path d="M35.385 39.375L32.8637 30.5484C32.7924 30.2997 32.7962 30.0354 32.8746 29.7888C32.9531 29.5422 33.1027 29.3243 33.3047 29.1624L39.2096 24.4388L37.4325 17.3263L33.8389 21.8203C33.7155 21.9739 33.5593 22.0979 33.3816 22.1831C33.204 22.2683 33.0095 22.3125 32.8125 22.3125H26.25V19.6875H32.1825L37.0387 13.6172C37.1917 13.4266 37.3948 13.2825 37.6253 13.2011C37.8557 13.1197 38.1043 13.1042 38.343 13.1565C38.5818 13.2087 38.8012 13.3266 38.9765 13.4968C39.1519 13.667 39.2763 13.8828 39.3356 14.1199L41.9606 24.6199C42.0218 24.8634 42.0118 25.1194 41.9318 25.3574C41.8518 25.5955 41.7051 25.8055 41.5091 25.9626L35.6291 30.6666L37.9103 38.6544L35.385 39.375ZM30.1875 7.21875C30.1875 6.31019 30.4569 5.42204 30.9617 4.6666C31.4665 3.91116 32.1839 3.32237 33.0233 2.97468C33.8627 2.62699 34.7863 2.53602 35.6774 2.71327C36.5685 2.89052 37.3871 3.32803 38.0295 3.97048C38.672 4.61293 39.1095 5.43146 39.2867 6.32256C39.464 7.21366 39.373 8.13731 39.0253 8.9767C38.6776 9.8161 38.0888 10.5335 37.3334 11.0383C36.578 11.5431 35.6898 11.8125 34.7812 11.8125C33.5633 11.8111 32.3957 11.3267 31.5345 10.4655C30.6733 9.60429 30.1889 8.43666 30.1875 7.21875V7.21875ZM32.8125 7.21875C32.8125 7.60813 32.928 7.98877 33.1443 8.31253C33.3606 8.63629 33.6681 8.88863 34.0278 9.03764C34.3876 9.18665 34.7834 9.22564 35.1653 9.14967C35.5472 9.07371 35.898 8.8862 36.1734 8.61087C36.4487 8.33553 36.6362 7.98474 36.7122 7.60284C36.7881 7.22094 36.7491 6.82509 36.6001 6.46534C36.4511 6.1056 36.1988 5.79813 35.875 5.5818C35.5513 5.36547 35.1706 5.25 34.7812 5.25C34.2593 5.2507 33.759 5.45834 33.3899 5.8274C33.0208 6.19646 32.8132 6.69682 32.8125 7.21875V7.21875Z" fill="#0560FA"/>
<path d="M26.2552 24.9375C25.5577 24.9375 24.8886 24.6604 24.3954 24.1671C23.9021 23.6739 23.625 23.0048 23.625 22.3073V19.6927C23.625 18.9952 23.9021 18.3261 24.3954 17.8329C24.8886 17.3396 25.5577 17.0625 26.2552 17.0625H28.875V13.125H13.125V17.0625H15.7448C16.4423 17.0625 17.1114 17.3396 17.6046 17.8329C18.0979 18.3261 18.375 18.9952 18.375 19.6927V22.3073C18.375 23.0048 18.0979 23.6739 17.6046 24.1671C17.1114 24.6604 16.4423 24.9375 15.7448 24.9375H13.125V28.875H28.875V24.9375H26.2552Z" fill="#0560FA"/>
<path d="M6.615 39.375L9.13631 30.5484C9.20746 30.2997 9.20356 30.0354 9.1251 29.7888C9.04665 29.5423 8.89713 29.3244 8.69531 29.1624L2.79037 24.4388L4.56881 17.3276L8.16244 21.8203C8.28565 21.9738 8.44169 22.0976 8.61909 22.1828C8.79648 22.268 8.99072 22.3123 9.1875 22.3125H15.75V19.6875H9.8175L4.96256 13.6172C4.80961 13.4266 4.60648 13.2825 4.37604 13.2011C4.14561 13.1197 3.89702 13.1042 3.65829 13.1565C3.41955 13.2087 3.20014 13.3266 3.02477 13.4968C2.8494 13.667 2.72504 13.8828 2.66569 14.1199L0.0406876 24.6199C-0.020532 24.8634 -0.0105277 25.1194 0.0695109 25.3574C0.149549 25.5955 0.296256 25.8055 0.492188 25.9626L6.37219 30.6666L4.08975 38.6544L6.615 39.375ZM7.21875 11.8125C6.31019 11.8125 5.42204 11.5431 4.6666 11.0383C3.91116 10.5335 3.32237 9.8161 2.97468 8.9767C2.62699 8.13731 2.53602 7.21366 2.71327 6.32256C2.89052 5.43146 3.32803 4.61293 3.97048 3.97048C4.61293 3.32803 5.43145 2.89052 6.32255 2.71327C7.21365 2.53602 8.1373 2.62699 8.9767 2.97468C9.8161 3.32237 10.5335 3.91116 11.0383 4.6666C11.5431 5.42204 11.8125 6.31019 11.8125 7.21875C11.8111 8.43666 11.3267 9.60429 10.4655 10.4655C9.60429 11.3267 8.43666 11.8111 7.21875 11.8125ZM7.21875 5.25C6.82937 5.25 6.44873 5.36547 6.12497 5.5818C5.80121 5.79813 5.54887 6.1056 5.39986 6.46534C5.25085 6.82509 5.21186 7.22094 5.28783 7.60284C5.36379 7.98474 5.5513 8.33553 5.82663 8.61087C6.10197 8.8862 6.45277 9.07371 6.83467 9.14967C7.21657 9.22564 7.61242 9.18665 7.97216 9.03764C8.3319 8.88863 8.63938 8.63629 8.85571 8.31253C9.07203 7.98877 9.1875 7.60813 9.1875 7.21875C9.18681 6.69682 8.97916 6.19646 8.6101 5.8274C8.24104 5.45834 7.74068 5.2507 7.21875 5.25V5.25Z" fill="#0560FA"/>
</g>
<defs>
<clipPath id="clip0_1_754">
<rect width="42" height="42" fill="white"/>
</clipPath>
</defs>
</svg>
